<?xml version="1.0" encoding="utf-8"?>
<!-- Generator: Adobe Illustrator 27.6.1, SVG Export Plug-In . SVG Version: 6.00 Build 0)  -->
<svg version="1.1" id="Layer_1" xmlns="http://www.w3.org/2000/svg" xmlns:xlink="http://www.w3.org/1999/xlink" x="0px" y="0px"
	 viewBox="0 0 1858.6 1428.2" style="enable-background:new 0 0 1858.6 1428.2;" xml:space="preserve">
<style type="text/css">
	.st0{fill:#EAB686;}
	.st1{display:none;}
	.st2{display:inline;fill:#A56E41;}
	.st3{fill:#EFE5BB;}
	.st4{fill:#CCB6A3;}
	.st5{fill:#A56E41;}
	.st6{fill:#D8D8D8;}
	.st7{fill:#70C6F2;}
	.st8{fill:#C1C1C1;}
</style>
<g id="Layer_2_00000174569614550021249150000002856044361423154318_">
	<path class="st0" d="M1607.7,1180.3c-28.4,25.4-129.6,80.1-152.5,99.3c-46.5,38.9-84.7,56.3-127.5,16.6
		c-39.6-36.7-20.7-71.4,27.1-118.7c21.4-21.2,54.1-50.4,80.7-74.2c86-77,177.2-115.3,203.7-85.7
		C1665.7,1047.3,1693.8,1103.5,1607.7,1180.3z"/>
	<path class="st0" d="M1511.8,1185.7c115.1-8.2,210.2,9.7,212.4,40.2c2.2,30.4-89.3,61.9-204.5,70.1c-23.6,1.7-95.6,25.9-116.9,25.5
		c-82.5-1.5-93.7-41.4-95.4-65.7c-1.6-22.3,5.7-59.8,77.4-73.6C1410.6,1177.1,1481.1,1187.9,1511.8,1185.7z"/>
	<path class="st0" d="M1718.2,1215.3c-18.6-17.2-76.6-4.5-63.8,50.5c7.9,34.2-64.8,51.3-65.2,86.5c-0.3,25.3,95.4-10.2,133.7-51.6
		C1761.2,1259.1,1736.8,1232.5,1718.2,1215.3z"/>
	<g id="Layer_2_00000163030664318944306950000000931366590050554790_">
		<path class="st0" d="M1424.2,1177c-28.4,25.4-129.6,80.1-152.5,99.3c-46.5,38.9-84.7,56.3-127.5,16.6
			c-39.6-36.7-20.7-71.4,27.1-118.7c21.4-21.2,54.1-50.4,80.7-74.2c86-77,177.2-115.3,203.7-85.7
			C1482.1,1044,1510.2,1100.1,1424.2,1177z"/>
		<path class="st0" d="M1328.2,1182.3c115.1-8.2,210.2,9.7,212.4,40.2c2.2,30.4-89.3,61.9-204.5,70.1
			c-23.6,1.7-95.6,25.9-116.9,25.5c-82.5-1.5-93.7-41.4-95.4-65.7c-1.6-22.3,5.7-59.8,77.4-73.6
			C1227.1,1173.7,1297.6,1184.5,1328.2,1182.3z"/>
		<path class="st0" d="M1534.7,1211.9c-18.6-17.2-76.6-4.5-63.8,50.5c7.9,34.2-64.8,51.3-65.2,86.5c-0.3,25.3,95.4-10.2,133.7-51.6
			C1577.7,1255.7,1553.3,1229.1,1534.7,1211.9z"/>
	</g>
</g>
<g id="Layer_5" class="st1">
	<path class="st2" d="M1622,735.1c0-90-37.1-662.4-74.7-721.4c-37.8-59.3-184.8-74.1-242.5-74.1c-57.6,0-210.2,22.3-247.9,81.4
		c-37.7,59.1-76.4,624-76.4,714.2c0,0,195.6,0,310.8,0S1622,735.1,1622,735.1z"/>
</g>
<g id="Layer_6">
	<path class="st3" d="M1654.3,1042.7c3.5-71.1,4.6-392-19.1-438.7c-23.9-46.9-92.8-84.9-132.8-85c-40-0.1-106.5-21.8-135.1,24.8
		c-12.1,19.8-172.8,96.3-187.3,201.2c-19.5,141.5,108.3,321.9,106.2,362.8c0,0,135.7,0.2,215.6,0.4
		C1581.7,1108.5,1654.3,1042.7,1654.3,1042.7z"/>
	<g id="Layer_7">
		<polygon class="st4" points="1687.5,883.9 1275.9,883.1 1271.5,921.5 1688.8,922.3 		"/>
	</g>
	<path class="st5" d="M1666.2,519.5c-77-47.4-72.3-71.9-121.1-72c-48.7-0.1-156.8,36.1-213.4,70.5c-42.3,25.7-110.9,98.8-151.7,227
		c5.7,336.8,28.4,386.1,56,395l108.7,0.2c11.8,0,21.3-8.7,20.4-18.7c-5.7-62.4-37.6-216.2-23.5-345.5
		c10.6-97.3,78.7-181.1,86.4-199.9c19.1-46.7,48.9-57.2,74.4-57.2c25.7,0,63.1,1.1,77.6,48c5.9,19.1-38.6,117.6-37.9,218.6
		c0.8,130.1-108.7,282.8-118,349.7c-1.4,10.1,106.1-11.9,118.1-12.2l94-2.4c95.2-12,81.4-191.4,81.6-209.4
		C1719.2,775.2,1776.3,640.6,1666.2,519.5z"/>
</g>
<g id="Layer_9">
	<g>
		<path class="st0" d="M1178.7,939.3c75.4-49,128.4-103.8,118.6-122.4c-6.8-12.7-37.8-50.2-86-3.7c-2.6,30.4-44.2,43-68.3,58.6
			c-75.4,49-135.1,85.1-118.6,122.4C1045.3,1041.5,1103.3,988.3,1178.7,939.3z"/>
	</g>
	<g>
		<path class="st0" d="M1496,852c-61.1,35.3-116.5,46-95,91.2c19.7,41.3,65.3-1.4,126.4-36.7c61.1-35.3,87.8-36.1,103.4-61.2
			c32.9-52.6-37-79.8-48-55.6C1568.6,821.1,1524.5,835.6,1496,852z"/>
	</g>
	<path class="st0" d="M1311.6,607.3c7.5,7.9,7.4,62.9,9.6,80.4c3.6,29.7-3.7,60.1-6,70.8c-16.8,76.9-52.3,134.5-79.3,128.5
		c-27-5.9-35.3-73-18.5-149.9C1234.2,660.4,1292.5,587.3,1311.6,607.3z"/>
	<path class="st0" d="M1670.1,641c5.9,1.7,13.1,33.1,18,60.5c3.3,18.3,3.6,36.3-1.6,48.2c-10.7,24.3-35.5,74.6-51.3,91.3
		c-19.2,20.3-29.6,4-43.8-1.3c-25.9-9.6-2.7-78.6,17.7-133.7C1629.3,650.8,1660.3,638.2,1670.1,641z"/>
</g>
<g id="Layer_1_00000036240354918663033620000011135125914326833037_">
	<g>
		
			<ellipse transform="matrix(0.8914 -0.4533 0.4533 0.8914 22.1004 636.3481)" class="st0" cx="1338.6" cy="272.1" rx="181.2" ry="218.4"/>
	</g>
	<g>
		<path class="st6" d="M1482.6,133.1c21.3,21.3,14.4,50.7,14.4,50.7c-73.2,35.3-176.2-18.1-176.2-18.1s-58.7,133.2-152,170.8
			c0,0-21.2-8.4-22.8-37.2c-4.4-82.6,4.4-176.4,93.6-221.7S1403.9,54.5,1482.6,133.1z"/>
	</g>
</g>
<g id="Layer_2_00000050648770340199704000000003571712515341115531_">
	<ellipse transform="matrix(0.8914 -0.4533 0.4533 0.8914 -6.6145 622.7777)" cx="1296" cy="325.2" rx="14.8" ry="28.4"/>
	<ellipse transform="matrix(0.8914 -0.4533 0.4533 0.8914 31.2421 667.1794)" cx="1407.5" cy="268.4" rx="14.8" ry="28.4"/>
</g>
<g id="Layer_3">
	<g>
		<path class="st6" d="M1568.1,407.2c17.9,107.5-16.7,176.3-59.4,198.1c-42.6,21.7-119.6,14.9-195.7-68.3
			c-31.6-34.5-108.3-78.3-96.9-120c13-47.6,123.2-27.5,170.7-51.6c47.2-24,95.6-124.5,141.5-107.1
			C1569,273.6,1560.4,360.9,1568.1,407.2z"/>
	</g>
</g>
<g id="Layer_4">
	<g>
		<path class="st0" d="M1367.2,436c-3.7-7.3,4.7-44.7,26.8-55.9s52.5-3.6,56.3,3.7c3.7,7.3-20.7,11.5-42.8,22.7
			S1370.9,443.3,1367.2,436z"/>
	</g>
</g>
<g id="Layer_2">
	<path class="st7" d="M1310.1,405c0,10-6.3,18.2-14.1,18.2c-7.8,0-14.1-8.1-14.1-18.2s14.1-41.7,14.1-41.7S1310.1,395,1310.1,405z"
		/>
	<path class="st7" d="M1431.2,340.7c0,10-6.3,18.2-14.1,18.2c-7.8,0-14.1-8.1-14.1-18.2c0-10,14.1-41.7,14.1-41.7
		S1431.2,330.6,1431.2,340.7z"/>
</g>
<g>
	<path class="st8" d="M245,1034.1l-9.5,4.7l77.2,81.4l11.3,2.4l60.7,24.5l5,36.8l29.9,5.2l5.5,34.8l60.4,22.9l-2.5,45.3l127.9-63.3
		l-223.2-183.4C353.2,1017.3,289.3,1012.1,245,1034.1z"/>
</g>
<g>
	<path class="st8" d="M125.2,1093.3l42.6-21.1l71.5,84.3l0.9,7.6l68.1,17.5l8.8,38.3l47.4-3l4.6,34.8l79.3,12.1l10,40.5l-127.9,63.3
		l-223.2-183.4C72.8,1155.9,80.9,1115.2,125.2,1093.3z"/>
</g>
<g>
	<path class="st8" d="M740.2,941.2l-13.2,1.9l35.2,73.7l10.8,3.7l51.5,28.4l-16.7,28.3l29.5,8.9l-15,26.9l52,27.2l-30.1,33.4
		l177.7-25.8L888.9,973.6C868.3,946.8,801.7,932.2,740.2,941.2z"/>
</g>
<g>
	<path class="st8" d="M573.7,965.4l59.2-8.6l27.3,74.9l-3.6,5.8l63.7,24.5l-13.5,30l53.5,5.7l-16,26.7l79.3,22.3l-13.5,31.9
		l-177.7,25.8l-133.1-174.2C478.9,1003.3,512.2,974.3,573.7,965.4z"/>
</g>
</svg>
