<?xml version="1.0" encoding="utf-8"?>
<!-- Generator: Adobe Illustrator 27.6.1, SVG Export Plug-In . SVG Version: 6.00 Build 0)  -->
<svg version="1.1" id="Layer_1" xmlns="http://www.w3.org/2000/svg" xmlns:xlink="http://www.w3.org/1999/xlink" x="0px" y="0px"
	 viewBox="0 0 927.5 1956.3" style="enable-background:new 0 0 927.5 1956.3;" xml:space="preserve">
<style type="text/css">
	.st0{fill:#EAB686;}
	.st1{display:none;}
	.st2{display:inline;fill:#A56E41;}
	.st3{fill:#EFE5BB;}
	.st4{fill:#CCB6A3;}
	.st5{fill:#A56E41;}
	.st6{fill:#D8D8D8;}
	.st7{display:inline;fill:#C1C1C1;}
</style>
<g id="Layer_2_00000123424273840212084750000016363252608882043818_">
	<path class="st0" d="M429.8,1309.5c-4.2,37.9-43,146.2-47.2,175.8c-8.6,60-25.4,98.5-83.8,97.5c-54-0.9-63.1-39.3-59.1-106.5
		c1.8-30.1,6.6-73.6,10.5-109.1c12.6-114.7,54.9-204.2,94.4-199.8C384.1,1171.8,442.5,1194.8,429.8,1309.5z"/>
	<path class="st0" d="M376.8,1654.5c10.5,114.9-5.6,210.4-36,213.1c-30.4,2.8-63.6-88.1-74.1-203.1c-2.2-23.6-27.8-95.1-27.8-116.4
		c-0.1-82.5,39.6-94.5,63.8-96.7c22.3-2,59.9,4.5,75.1,75.9C383.4,1553.2,374,1623.9,376.8,1654.5z"/>
	<path class="st0" d="M712.5,1332.8c-4.2,37.9-43,146.2-47.2,175.8c-8.6,60-25.4,98.5-83.8,97.5c-54-0.9-63.1-39.3-59.1-106.5
		c1.8-30.1,6.6-73.6,10.5-109.1c12.6-114.7,54.9-204.2,94.4-199.8C666.8,1195.1,725.2,1218.1,712.5,1332.8z"/>
	<path class="st0" d="M659.5,1677.8c10.5,114.9-5.6,210.4-36,213.1c-30.4,2.8-63.6-88.1-74.1-203.1c-2.2-23.6-27.8-95.1-27.8-116.4
		c-0.1-82.5,39.6-94.5,63.8-96.7c22.3-2,59.9,4.5,75.1,75.9C666.1,1576.5,656.7,1647.2,659.5,1677.8z"/>
	<path class="st0" d="M367.6,1837.8c0-25.3-48.7-59.3-80.4-12.6c-19.7,29-104.7,36-130.8,59.5c-18.8,16.9,95.2,14.4,151.7,14.4
		S367.6,1863.1,367.6,1837.8z"/>
	<path class="st0" d="M657.9,1849.4c0-25.3-48.7-59.3-80.4-12.6c-19.7,29-104.7,36-130.8,59.5c-18.8,16.9,95.2,14.4,151.7,14.4
		S657.9,1874.7,657.9,1849.4z"/>
</g>
<g id="Layer_5" class="st1">
	<path class="st2" d="M690.9,1263.2c0-90-37.1-662.4-74.7-721.4c-37.8-59.3-184.8-74.1-242.5-74.1c-57.6,0-210.2,22.3-247.9,81.4
		s-76.4,624-76.4,714.2c0,0,195.6,0,310.8,0S690.9,1263.2,690.9,1263.2z"/>
</g>
<g id="Layer_6">
	<path class="st3" d="M723.6,1390.6c14.3-97.1,75.5-719,54.5-787.2c-21.1-68.5-137.6-102-184.2-108.9c-46.6-6.9-173.4-1-213.4,58.2
		c-17,25.2-215.3,103.1-247.2,244.8c-43.1,191.2,80,460.7,71.7,516.5c0,0,158.1,23.3,251.2,37.1S723.6,1390.6,723.6,1390.6z"/>
	<g id="Layer_7">
		<polygon class="st4" points="704.9,1074.3 225.3,1003.4 214.6,1055.4 701,1127.2 		"/>
	</g>
	<path class="st5" d="M827.8,574C801,498,658.5,458.9,601.6,450.5c-56.8-8.4-187.9,23-258.9,60.7C289.7,539.3,48.8,641.1,33,816.4
		c-41.8,463.8,77.9,516.4,108.8,533.3l126.7,18.7c13.7,2,26.1-8.4,26.5-22.3c2.3-86.7-12.8-303.5,22.2-478.7
		c26.3-131.9,117.7-235.5,129.4-260c29-60.9,111.5-73.3,141.3-68.9c29.9,4.4,103.6,31.7,113.7,98.5c4.1,27.3,48.8,110.3,35,249.2
		c-17.8,178.9-85.7,418.7-106.1,509c-3.1,13.7,6.4,27.1,20.4,28.7l109.9,12.6c24.7,3.6,47.4-13.9,50.3-38.6
		C832.4,1211.2,852,642.6,827.8,574z"/>
</g>
<g id="Layer_9">
	<g>
		<path class="st0" d="M95.6,777.9c53.8,49.6,106.9,79.5,118.6,66.8c8-8.7,27.9-88.2-16.2-74.6c-17.3,5.4-42.8-22.4-60-38.2
			c-53.8-49.6-94.4-89.6-118.6-66.8C-11.2,694,41.8,728.3,95.6,777.9z"/>
	</g>
	<g>
		<path class="st0" d="M544.5,895.3c-61.1,35.3-116.5,46-95,91.2c19.7,41.3,65.3-1.4,126.4-36.7s87.8-36.1,103.4-61.2
			c32.9-52.6-37-79.8-48-55.6C617.1,864.4,573,878.9,544.5,895.3z"/>
	</g>
	<path class="st0" d="M411.7,659.3c1.4,10.8-31.1,55.2-39.7,70.6c-14.6,26.1-38.4,46.4-46.6,53.7c-58.9,52.2-121.5,77.8-139.8,57.1
		s14.5-79.8,73.4-132C317.9,656.5,408.1,631.9,411.7,659.3z"/>
	<path class="st0" d="M718.6,684.3c5.9,1.7,13.1,33.1,18,60.5c3.3,18.3,3.6,36.3-1.6,48.2c-10.7,24.3-35.5,74.6-51.3,91.3
		c-19.2,20.3-29.6,4-43.8-1.3c-25.9-9.6-2.7-78.6,17.7-133.7C677.8,694.1,708.8,681.5,718.6,684.3z"/>
</g>
<g id="Layer_1_00000036240354918663033620000011135125914326833037_">
	<g>
		
			<ellipse transform="matrix(0.4089 -0.9126 0.9126 0.4089 186.5407 805.0278)" class="st0" cx="714.7" cy="258.5" rx="218.4" ry="181.2"/>
	</g>
	<g>
		<path class="st6" d="M913.3,283.3c-3.2,30-30.4,43-30.4,43c-73.4-34.8-96.6-148.5-96.6-148.5s-140.5,38-228.4-11
			c0,0-6.8-21.8,14.6-41.1c61.5-55.3,140-107.4,231.3-66.4S925,172.7,913.3,283.3z"/>
	</g>
</g>
<g id="Layer_2_00000050648770340199704000000003571712515341115531_">
	<ellipse transform="matrix(0.4089 -0.9126 0.9126 0.4089 146.1172 742.9453)" cx="646.6" cy="258.7" rx="28.4" ry="14.8"/>
	<ellipse transform="matrix(0.4089 -0.9126 0.9126 0.4089 166.9741 877.4427)" cx="760.8" cy="309.8" rx="28.4" ry="14.8"/>
</g>
<g id="Layer_3">
	<g>
		<path class="st6" d="M753.7,522c-72.4,81.4-147.7,97.7-191.4,78.2c-43.6-19.5-86.7-83.7-69.8-195.2c7-46.2-7.1-133.4,32.5-150.8
			c45.2-19.8,98.8,78.6,147.4,100.4c48.3,21.7,156.9-3.8,172.2,42.8C858.2,438.7,784.9,486.9,753.7,522z"/>
	</g>
</g>
<g id="Layer_4">
	<g>
		<path class="st0" d="M617.9,353c3.3-7.5,24.8,6.3,47.5,16.4c22.6,10.1,52.6,14.1,49.3,21.6s-38.7,15.6-61.4,5.4
			C630.7,386.3,614.6,360.5,617.9,353z"/>
	</g>
</g>
<g id="Layer_10" class="st1">
	<path class="st7" d="M483.6,440.7h-153c-108.8,0-196.9,88.2-196.9,196.9v705.8h546.9V637.6C680.5,528.9,592.3,440.7,483.6,440.7z"
		/>
</g>
</svg>
