<?xml version="1.0" encoding="utf-8"?>
<!-- Generator: Adobe Illustrator 27.6.1, SVG Export Plug-In . SVG Version: 6.00 Build 0)  -->
<svg version="1.1" id="Layer_1" xmlns="http://www.w3.org/2000/svg" xmlns:xlink="http://www.w3.org/1999/xlink" x="0px" y="0px"
	 viewBox="0 0 878.4 1980.1" style="enable-background:new 0 0 878.4 1980.1;" xml:space="preserve">
<style type="text/css">
	.st0{fill:#EAB686;}
	.st1{display:none;}
	.st2{display:inline;fill:#A56E41;}
	.st3{fill:#EFE5BB;}
	.st4{fill:#CCB6A3;}
	.st5{fill:#A56E41;}
	.st6{fill:#D8D8D8;}
	.st7{display:inline;fill:#C1C1C1;}
	.st8{fill:none;stroke:#704626;stroke-width:43.5931;stroke-linecap:round;stroke-miterlimit:10;}
</style>
<path class="st0" d="M369.4,1283.7c-4.2,37.9-43,146.2-47.2,175.8c-8.6,60-25.4,98.5-83.8,97.5c-54-0.9-63.1-39.3-59.1-106.5
	c1.8-30.2,6.6-73.6,10.5-109.1c12.7-114.7,54.9-204.2,94.4-199.8S382,1169,369.4,1283.7z"/>
<path class="st0" d="M316.4,1628.7c10.5,114.9-5.6,210.4-36,213.1s-63.6-88.1-74.1-203.1c-2.2-23.6-27.8-95-27.8-116.4
	c-0.1-82.5,39.6-94.5,63.8-96.7c22.3-2,59.9,4.5,75.1,75.9C322.9,1527.3,313.6,1598.1,316.4,1628.7z"/>
<path class="st0" d="M652.1,1307c-4.2,37.9-43,146.2-47.2,175.8c-8.6,60-25.4,98.5-83.8,97.5c-54-0.9-63.1-39.3-59.1-106.5
	c1.8-30.1,6.6-73.6,10.5-109.1c12.6-114.7,54.9-204.2,94.4-199.8C606.4,1169.2,664.8,1192.3,652.1,1307z"/>
<path class="st0" d="M599.1,1652c10.5,114.9-5.6,210.4-36,213.1c-30.4,2.8-63.6-88.1-74.1-203.1c-2.2-23.6-27.8-95.1-27.8-116.4
	c-0.1-82.5,39.6-94.5,63.8-96.7c22.3-2,59.9,4.5,75.1,75.9C605.6,1550.7,596.3,1621.4,599.1,1652z"/>
<path class="st0" d="M304.6,1824.6c2.4-55.6-59.4-58.6-57.6,2.1c1.2,40.6-11.2,56.9-25.6,87.7c-10.4,22.2,61.3,19,92.4,19
	S303.1,1857.8,304.6,1824.6z"/>
<g id="Layer_5" class="st1">
	<path class="st2" d="M640.7,1270.5c0-90-37.1-662.4-74.7-721.4C528.2,489.8,381.2,475,323.5,475c-57.6,0-210.2,22.3-247.9,81.4
		c-37.7,59.1-76.4,624-76.4,714.2c0,0,195.6,0,310.8,0S640.7,1270.5,640.7,1270.5z"/>
</g>
<g id="Layer_6">
	<path class="st3" d="M659,1400.9c3.3-98.1-6.2-722.9-34.8-788.3C595.5,547,476,526.8,428.9,525.2c-47-1.6-172.4,18.6-205.4,82
		c-14,27-74.3,135.3-90,279.7c-21.2,194.8,3.5,440.1,1.7,496.6c0,0,159.7,5.3,253.8,8.5C483,1395,659,1400.9,659,1400.9z"/>
	<g id="Layer_7">
		<polygon class="st4" points="604.7,1088.7 120.1,1072.6 115.3,1125.4 606.8,1141.8 		"/>
	</g>
	<path class="st5" d="M670.2,577.8c-35.3-72.5-181.2-95.2-238.7-97.2c-57.4-1.9-184.1,44.1-250.4,89.6
		C131.7,604.1,72.3,736.7,76.4,912.7c10.9,465.6-32.6,499.9-0.1,513.3l128,4.3c13.9,0.5,25-11.3,23.8-25.2
		c-7.5-86.4-47-300.1-32.1-478.1c11.2-134,90.4-247.3,99.1-272.9c21.9-63.7,102.5-85.4,132.6-84.4c30.2,1,106.5,19.8,124.1,85
		c7.2,26.6,61,104.1,63,243.7c2.6,179.8-37.8,425.7-47.9,517.7c-1.5,14,9.4,26.2,23.5,26.2l110.6,0.1c24.9,0.8,45.6-19.1,45.6-44.1
		C746.9,1210.3,702,643.2,670.2,577.8z"/>
</g>
<g id="Layer_9">
	<g>
		<path class="st0" d="M642.2,853.9c55.5-20.8,91-53.6,111.6-8.1c18.8,41.6-34,46.3-89.5,67.1s-69.6,39.5-95,34.1
			c-53.3-11.2-36.8-79.8-14.4-71.7C583.9,885.9,616.3,863.6,642.2,853.9z"/>
	</g>
	<path class="st0" d="M573.6,709.5c6.1,0,22,27.9,34.6,52.7c8.4,16.6,13.9,33.7,12.3,46.6c-3.3,26.3-12.6,81.7-22.9,102.2
		c-12.6,24.9-27.2,12.3-42.4,11.4c-27.6-1.7-25.1-74.6-21.5-133.2C537.4,730.6,563.5,709.6,573.6,709.5z"/>
	<g>
		<path class="st0" d="M119.1,867.6c-53.2,7.8-96-4.4-91.7,45.3c4,45.5,47.7,24.8,100.8,16.9c53.2-7.8,72.7,2,90.3-14.6
			c37-34.9-6.9-87.6-20.9-69.9C179.5,868.3,143.9,863.9,119.1,867.6z"/>
	</g>
	<path class="st0" d="M283.3,678.1c-4.7-4-7.2,19.7-23.6,44.5c-10.3,15.5-26.1,49.7-33.2,60.6C212,805.4,183.4,853.7,178,876
		c-6.5,27.1,12.8,27,25,36c22.2,16.5,67.3-40.7,102.4-87.8C340.6,777.1,291,684.7,283.3,678.1z"/>
</g>
<g id="Layer_1_00000135672302215479586410000001130610174748252808_">
	<g>
		<ellipse class="st0" cx="436.1" cy="245.9" rx="181.2" ry="218.4"/>
	</g>
	<g>
		<path class="st6" d="M627.4,187.3c9.4,28.7-10.1,51.7-10.1,51.7c-81.2-1.8-148.8-96-148.8-96s-112.8,92-212.9,83.3
			c0,0-15.1-17.1-3.5-43.5c33.5-75.7,83.9-155.2,184-155.2S592.9,81.6,627.4,187.3z"/>
	</g>
</g>
<g id="Layer_2_00000029740546567429372550000013645334440320965768_">
	<ellipse cx="373.9" cy="273.9" rx="14.8" ry="28.4"/>
	<ellipse cx="499.1" cy="273.9" rx="14.8" ry="28.4"/>
</g>
<g id="Layer_3">
	<g>
		<path class="st6" d="M573.4,470.5c-32.7,103.9-94.9,149.6-142.7,149.6s-113.3-41-143.5-149.6c-12.5-45-61.1-118.8-32-150.9
			C288.3,283,377.5,351,430.7,351c53,0,141.6-67.7,174.7-31.4C634.7,351.8,587.5,425.8,573.4,470.5z"/>
	</g>
</g>
<g id="Layer_4">
	<g>
		<path class="st0" d="M436.1,364.4c24.8,0,44.9-4.1,44.9,4.1S460.9,394,436.1,394s-47.4-16.8-47.4-25S411.3,364.4,436.1,364.4z"/>
	</g>
</g>
<g id="Layer_10" class="st1">
	<path class="st7" d="M433.4,448h-153c-108.8,0-196.9,88.2-196.9,196.9v705.8h546.9V644.9C630.3,536.2,542.1,448,433.4,448z"/>
</g>
<g id="Layer_11">
	<path class="st8" d="M782.4,1609.8c0,0-58.9-176.2-62.7-313.8c-3.8-137.5,28.5-309.7,31.4-411.7s-52.3-304-52.3-304
		s-32.3-106.8-17.1-188.8s119.8-82.8,119.8-82.8"/>
</g>
<path class="st0" d="M589.3,1825.4c2.4-54.3-59.4-57.2-57.6,2.1c1.2,39.6-11.2,55.6-25.6,85.6c-10.4,21.7,61.3,18.6,92.4,18.6
	S587.8,1857.8,589.3,1825.4z"/>
</svg>
